<?xml version="1.0" encoding="UTF-8"?>
<svg id="Layer_1" data-name="Layer 1" xmlns="http://www.w3.org/2000/svg" viewBox="0 0 144 144">
  <defs>
    <style>
      .cls-1 {
        fill: #e0e0e0;
      }

      .cls-1, .cls-2 {
        stroke-width: 0px;
      }

      .cls-2 {
        fill: #2d2d2d;
      }
    </style>
  </defs>
  <rect class="cls-2" width="144" height="144" rx="30" ry="30"/>
  <g>
    <path class="cls-1" d="M28.45,11.98c2.95,0,5.65.25,8.1.75,2.45.5,4.52,1.06,6.19,1.69,1.68.63,2.76,1.15,3.23,1.55l-5.41,9.79c-.7-.55-2-1.22-3.87-2.02-1.88-.79-4-1.19-6.36-1.19-1.81,0-3.33.28-4.56.83-1.24.56-1.86,1.41-1.86,2.55s.68,2.12,2.05,2.82c1.36.7,3.34,1.31,5.92,1.83,2.21.44,4.46,1.14,6.74,2.1,2.29.96,4.2,2.37,5.72,4.23,1.53,1.86,2.3,4.35,2.3,7.44s-.68,5.78-2.05,7.83-3.16,3.64-5.39,4.78c-2.23,1.15-4.65,1.95-7.27,2.4-2.62.46-5.17.7-7.64.7-3.42,0-6.42-.32-8.99-.94-2.56-.63-4.63-1.34-6.19-2.13-1.57-.79-2.66-1.44-3.29-1.96l5.31-10.89c.96.81,2.52,1.72,4.7,2.74,2.17,1.01,4.5,1.52,6.97,1.52s4.2-.36,5.53-1.08c1.33-.72,2-1.69,2-2.9,0-.89-.32-1.62-.94-2.21-.63-.58-1.53-1.08-2.71-1.49-1.17-.41-2.58-.77-4.2-1.1-1.48-.34-3.04-.8-4.7-1.41-1.66-.6-3.23-1.46-4.7-2.55-1.48-1.08-2.66-2.46-3.57-4.12-.9-1.66-1.35-3.66-1.35-6.03,0-2.99.96-5.48,2.88-7.47,1.91-1.99,4.42-3.49,7.52-4.51,3.1-1.01,6.4-1.52,9.9-1.52Z"/>
    <path class="cls-1" d="M113.5,11.98c3.43,0,6.45.71,9.07,2.13s4.67,3.6,6.15,6.55c1.48,2.95,2.21,6.74,2.21,11.39v26.66h-16.31v-24.17c0-3.21-.48-5.79-1.43-7.74s-2.88-2.93-5.75-2.93c-1.7,0-3.21.44-4.51,1.3s-2.32,2.1-3.04,3.71c-.72,1.6-1.08,3.49-1.08,5.67v24.17h-15.2v-24.17c0-3.21-.53-5.79-1.6-7.74s-2.93-2.93-5.59-2.93c-1.73,0-3.24.44-4.54,1.3-1.29.86-2.29,2.09-3.01,3.68-.72,1.58-1.08,3.48-1.08,5.7v24.17h-16.42V13.31h16.42v6.47c.44-1.14,1.42-2.31,2.93-3.51,1.51-1.2,3.37-2.21,5.56-3.04s4.54-1.24,7.05-1.24c2.7,0,4.95.41,6.75,1.22s3.28,1.88,4.43,3.21c1.14,1.33,2.05,2.76,2.76,4.32.52-1.33,1.55-2.66,3.08-4.01,1.52-1.34,3.43-2.47,5.72-3.37,2.28-.91,4.77-1.36,7.45-1.36Z"/>
    <path class="cls-1" d="M99.77,132.02h-16.35V63.62h16.52v6.69c.52-1.03,1.5-2.17,2.97-3.42,1.45-1.25,3.32-2.33,5.61-3.23,2.28-.91,4.88-1.36,7.79-1.36,4.39,0,8.17,1.08,11.33,3.23,3.18,2.16,5.61,5.06,7.31,8.68,1.69,3.63,2.53,7.68,2.53,12.14s-.9,8.52-2.7,12.15c-1.81,3.63-4.36,6.5-7.64,8.63s-7.12,3.21-11.5,3.21c-3.16,0-5.89-.56-8.16-1.69s-4.04-2.36-5.32-3.77c-1.27-1.41-2.07-2.5-2.4-3.26v30.4ZM121.29,86.35c0-2.11-.46-3.99-1.41-5.67s-2.21-3-3.78-3.95c-1.59-.96-3.37-1.43-5.37-1.43s-3.87.48-5.5,1.46c-1.65.98-2.94,2.29-3.87,3.95-.94,1.66-1.42,3.53-1.42,5.64s.48,3.99,1.42,5.65c.93,1.66,2.22,2.95,3.87,3.91,1.63.96,3.47,1.43,5.5,1.43s3.78-.45,5.37-1.41c1.58-.93,2.84-2.25,3.78-3.94.94-1.66,1.41-3.54,1.41-5.65Z"/>
  </g>
</svg>